<?xml version="1.0" encoding="utf-8"?>
<!-- Generator: Adobe Illustrator 25.2.2, SVG Export Plug-In . SVG Version: 6.00 Build 0)  -->
<svg version="1.1" id="Ebene_1" xmlns="http://www.w3.org/2000/svg" xmlns:xlink="http://www.w3.org/1999/xlink" x="0px" y="0px"
	 viewBox="0 0 332 331" style="enable-background:new 0 0 332 331;" xml:space="preserve">
<style type="text/css">
	.st0{fill:#FFFFFF;stroke:#000000;stroke-width:5.75;stroke-miterlimit:10;}
	.st1{fill:none;stroke:#C0C0C0;stroke-width:4.5;stroke-miterlimit:4.5;}
	.st2{clip-path:url(#SVGID_2_);}
	.st3{fill:#FFFFFF;}
</style>
<g>
	<g>
		<circle class="st0" cx="165" cy="165" r="155"/>
		<g>
			<circle class="st1" cx="165" cy="165" r="100"/>
			<g>
				<defs>
					<circle id="SVGID_1_" cx="165" cy="165" r="100"/>
				</defs>
				<clipPath id="SVGID_2_">
					<use xlink:href="#SVGID_1_"  style="overflow:visible;"/>
				</clipPath>
				<g class="st2">
					<ellipse class="st1" cx="165" cy="165" rx="62.5" ry="100"/>
					<ellipse class="st1" cx="165" cy="165" rx="26.5" ry="100"/>
					<circle class="st1" cx="165" cy="359" r="130"/>
					<circle class="st1" cx="165" cy="453" r="260"/>
					<circle class="st1" cx="165" cy="-29" r="130"/>
					<circle class="st1" cx="165" cy="-123" r="260"/>
					<line class="st1" x1="65" y1="165" x2="265" y2="165"/>
					<line class="st1" x1="165" y1="65" x2="165" y2="265"/>
				</g>
			</g>
		</g>
		<g>
			<g>
				<path d="M75.3,276.6c2.4,1.8,9.8,6.3,20.4,6.3c22.8,0,25.5-14.1,54.5-14.1c22.9,0,43.6,18.5,53.5,27.9l-6.3,5.5
					c-3.6-5-23.8-29.3-44.2-29.3c-13,0-22.9,19.2-46.5,19.2C88.9,291.9,79.2,282,75.3,276.6L75.3,276.6z"/>
				<path d="M132.3,268.7c-10.2-0.2-25,7.9-40,7.6c-11.9-0.2-33.1-6.4-41-24.7C56,257,63,264.2,84.4,264.3c13,0.1,24.9,3.6,29.2,3.6
					c-5.9-1.5-12.5-3.8-17.9-8.9c-5-4.8-10.5-20.5-14.5-25.3c7.4,3.2,21.8,19.7,27.5,24.5C118.2,266.2,122.6,266.4,132.3,268.7
					L132.3,268.7z"/>
				<path d="M94.7,261.8c-10.2-2-31-5.7-36-8.9c-8.2-5.2-25.9-15-29.1-37.2C33,224,43,233.3,57.2,238.9c12.9,5.1,18.4,12,25.8,16.2
					c-5.8-4.3-9.7-9.4-12.7-14.7c-5.2-9.2-4.4-31.2-9.5-37.6C69,210.3,76,225.6,78,231.5C82.1,243.8,86.3,257.1,94.7,261.8
					L94.7,261.8z"/>
				<path d="M66.8,239.7c-5.8-6-28.2-16.7-33.5-24.6c-5.4-8.1-15.1-15.5-12.5-39.3c0.5,8.9,6.1,17.4,17.2,27.8
					c8.1,7.6,12.9,18.5,18.6,24.8c-4-6-6.8-12.9-8-19c-2-10.4,6-28.2,3.2-35.9c5.4,9.8,6.9,26,6.9,32.3
					C58.6,218.8,62.2,233.9,66.8,239.7L66.8,239.7z"/>
				<path d="M44.8,206.3c-5.4-10.4-19.9-22.7-22.2-35c-1.8-9.6-5.1-19.9,2.1-37.3c-1.5,8.6,0,18.4,6.7,30.8
					c6.6,12.3,5.4,22.5,8.2,27.1c-1.5-7.1-1.4-14.5-0.2-20.6c2.1-10.3,14-20.2,14.8-30.9c1.2,10.2-2.3,25.5-4.3,31.4
					C45.2,185.4,42.9,191.8,44.8,206.3L44.8,206.3z"/>
				<path d="M37,169.2c-1.3-12.7-10.2-27.9-9.7-40.2c0.4-9.7,0.9-18.3,13.1-32.5c-4.5,8.2-4.4,14.9-2.8,28.9
					c1.5,13.1-1.4,23.5-0.1,28.8c0.5-10.3,2.7-15.1,6.5-20c7-9.1,16.8-12.9,19.1-20.4c-0.2,8.2-5.9,19.9-9.7,24.9
					C44.7,150.1,38.4,155.5,37,169.2L37,169.2z"/>
				<path d="M40.6,134.4c2.7-12.5-2-24.8,1.4-34.7c2.8-8.3,6.9-16.8,20.7-21c-4.2,2.3-9.9,10.2-10.5,15.9c-1.6,14.6-6.5,21-7,26.4
					c3.2-8.9,8.5-13.3,13.5-16.8c9.4-6.5,14.3-10.7,17.3-17.3c-0.3,8.4-5.4,18.9-12.4,24C52.1,119.4,43.4,127.4,40.6,134.4
					L40.6,134.4z"/>
				<path d="M90.8,65c-4.8,2.3-19.1,6.3-25.5,13.8C56.6,89,56.7,98,53.6,103.7c5.4-4.3,15.5-11.7,19-16.9C76,81.7,82,72.2,90.8,65
					L90.8,65z"/>
			</g>
			<g>
				<path d="M254.7,276.6c-2.4,1.8-9.8,6.3-20.4,6.3c-22.8,0-25.5-14.1-54.5-14.1c-22.9,0-43.6,18.5-53.5,27.9l6.3,5.5
					c3.6-5,23.8-29.3,44.2-29.3c13,0,22.9,19.2,46.5,19.2C241.1,291.9,250.8,282,254.7,276.6L254.7,276.6z"/>
				<path d="M197.7,268.7c10.2-0.2,25,7.9,40,7.6c11.9-0.2,33.1-6.4,41-24.7c-4.8,5.4-11.7,12.5-33.2,12.7
					c-13,0.1-24.9,3.6-29.2,3.6c5.9-1.5,12.5-3.8,17.9-8.9c5-4.8,10.5-20.5,14.5-25.3c-7.4,3.2-21.8,19.7-27.5,24.5
					C211.8,266.2,207.4,266.4,197.7,268.7L197.7,268.7z"/>
				<path d="M235.3,261.8c10.2-2,31-5.7,36-8.9c8.2-5.2,25.9-15,29.1-37.2c-3.3,8.3-13.3,17.6-27.5,23.1
					c-12.9,5.1-18.4,12-25.8,16.2c5.8-4.3,9.7-9.4,12.7-14.7c5.2-9.2,4.4-31.2,9.5-37.6c-8.3,7.6-15.3,22.9-17.3,28.8
					C247.9,243.8,243.7,257.1,235.3,261.8z"/>
				<path d="M263.2,239.7c5.8-6,28.2-16.7,33.5-24.6c5.4-8.1,15.1-15.5,12.5-39.3c-0.5,8.9-6.1,17.4-17.2,27.8
					c-8.1,7.6-12.9,18.5-18.6,24.8c4-6,6.8-12.9,8-19c2-10.4-6-28.2-3.2-35.9c-5.4,9.8-6.9,26-6.9,32.3
					C271.4,218.8,267.8,233.9,263.2,239.7L263.2,239.7z"/>
				<path d="M285.2,206.3c5.4-10.4,19.9-22.7,22.2-35c1.8-9.6,5-19.9-2.1-37.3c1.5,8.6,0,18.4-6.7,30.8c-6.6,12.3-5.4,22.5-8.2,27.1
					c1.5-7.1,1.4-14.5,0.2-20.6c-2.1-10.3-14-20.2-14.8-30.9c-1.2,10.2,2.3,25.5,4.3,31.4C284.8,185.4,287.1,191.8,285.2,206.3
					L285.2,206.3z"/>
				<path d="M293,169.2c1.3-12.7,10.2-27.9,9.7-40.2c-0.4-9.7-0.9-18.3-13.1-32.5c4.5,8.2,4.4,14.9,2.8,28.9
					c-1.5,13.1,1.4,23.5,0.1,28.8c-0.5-10.3-2.7-15.1-6.5-20c-7-9.1-16.8-12.9-19.1-20.4c0.2,8.2,5.9,19.9,9.7,24.9
					C285.3,150.1,291.6,155.5,293,169.2z"/>
				<path d="M289.4,134.4c-2.7-12.5,2-24.8-1.4-34.7c-2.8-8.3-6.9-16.8-20.7-21c4.2,2.3,9.9,10.2,10.5,15.9c1.6,14.6,6.5,21,7,26.4
					c-3.2-8.9-8.5-13.3-13.5-16.8c-9.4-6.5-14.3-10.7-17.3-17.3c0.3,8.4,5.4,18.9,12.4,24C277.9,119.4,286.6,127.4,289.4,134.4
					L289.4,134.4z"/>
				<path d="M239.2,65c4.8,2.3,19.1,6.3,25.5,13.8c8.6,10.1,8.5,19.2,11.6,24.8c-5.4-4.3-15.5-11.7-19-16.9
					C254,81.7,248,72.2,239.2,65L239.2,65z"/>
			</g>
		</g>
		<g>
			<circle cx="165" cy="137" r="5.2"/>
			<path d="M178.2,112.6c1.2-1.7,1.8-3.6,1.8-5.6c0-4.1-2.9-10.1-13.4-10.1c-9.8,0-13.1,5.7-13.1,9.5c0,2.9,1.9,4.6,4.5,4.6
				c2.2,0,4-1.5,4-3.7c0-2.6-2.1-4.6-2.1-5.8c0-1,1.5-2.4,4-2.4c2.1,0,5.9,1.3,5.9,8.3c0,9.4-5.5,9-5.5,18.8v1h1.4
				c0.2-2.3,0.6-3.9,1.3-5c0.7-1.1,2.2-2.4,4.5-3.8C174.8,116.2,177.1,114.3,178.2,112.6L178.2,112.6z"/>
		</g>
		<g>
			<polygon class="st3" points="184,212 184,160 180,156.5 175.8,154.3 174.5,153.6 168,150.5 162,150.5 155.5,153.6 154.2,154.3 
				150,156.5 146,160 146,212 			"/>
			<path d="M170.6,211.8l-0.4-17.2c-0.2-3.3-0.2-6.5-0.5-9.8c-0.7-4.6-2.8-8.9-3.3-13.6c0.5-0.7,1.1-1.3,1.8-1.9
				c2.6,1.3,3,3.9,5.4,5.8c-0.6-2.4-2-4.4-2.9-6.7c-1.2-2.1-1.9-4.6-4-6c1.4-0.8,2.9-1.4,4.4-2.1c2.5-1.2,5.3-2.2,7.3-4.1
				c0-0.1,0-0.3,0-0.4l1.1,0.7c0.4,1.2,0.9,2.3,1.3,3.5c0.2,0.5,0.2,1,0.2,1.5c0,1-0.3,1.9-0.8,2.8c0.3,1.8,1.2,3.4,1.8,5.1
				c1,2.5,1.2,5.3,1.4,8c0.1,0.7,0.2,1.4,0.2,2C183.6,192.2,175.2,206.1,170.6,211.8L170.6,211.8z M146.4,179.5c0-0.7,0-1.4,0.2-2
				c0.1-2.7,0.4-5.4,1.4-7.9c0.6-1.7,1.5-3.4,1.8-5.1c-0.5-0.8-0.8-1.8-0.8-2.8c0-0.5,0.1-1,0.2-1.5c0.4-1.2,0.9-2.3,1.3-3.5
				l1.1-0.7c0,0.1,0,0.2,0,0.4c2,1.9,4.8,3,7.3,4.1c1.5,0.7,3,1.3,4.4,2.1c-2.1,1.4-2.9,3.9-4,6c-0.9,2.2-2.3,4.3-2.9,6.7
				c2.3-2,2.7-4.6,5.4-5.8c0.6,0.6,1.2,1.2,1.8,1.9c-0.4,4.7-2.5,9-3.3,13.6c-0.3,3.3-0.3,6.5-0.5,9.8l-0.4,17.2
				C154.8,206.1,146.4,192.2,146.4,179.5L146.4,179.5z M206.5,271.2c4.1-2.6,8.4-4.8,12.4-7.5l4.8-3.1c2.4-1.4,4.3-3.4,6.5-5.1
				c0.4-2.4,0.6-4.8,1.1-7.1v-7.1c-0.3-1.2-0.1-2.4-0.3-3.6c-0.2-3.8-0.5-7.6-1-11.4c-1-5-0.8-10.1-1.7-15.1c-0.3-1.8-1.3-3.3-1.8-5
				c0.6-0.2,1.1-0.5,1.7-0.7c-0.7-2.1-1.9-2.1-1.9-3.1c0-1.2,1.4-2.5,2-3.6c-0.7-0.7-1.7-1.1-2.6-1.5c0-0.5,0-1.1,0-1.7
				c0-0.7,0-1.3-0.1-2c-0.6-5.1-1.5-10.3-2-15.4c-0.1-2.8-1.9-5.5-4.7-6.4c-6.2-0.2-12.3-1.4-18.3-2.9c-4-1-8.3-2.3-11.2-5.4
				c-1.6-2.1-4-3.4-6.1-5.1c-2.3-1.7-4.6-3.7-7.5-4.3c0,0.1,0.1,0.1,0.1,0.1l0.6,0.7c0.3,0.2,0.5,0.5,0.8,0.7
				c-0.3,0.5-0.7,0.9-1,1.3c-5.6-3-7.2-3-8.9-3h-4.6c-1.8,0-3.3,0-8.9,3c-0.3-0.4-0.7-0.8-1-1.3c0.3-0.2,0.5-0.5,0.8-0.7l0.6-0.7
				c0-0.1,0.1-0.1,0.1-0.1c-2.9,0.6-5.2,2.6-7.5,4.3c-2.1,1.6-4.5,3-6.1,5.1c-2.9,3.1-7.1,4.4-11.2,5.4c-6,1.4-12.1,2.7-18.3,2.9
				c-2.8,0.9-4.6,3.6-4.7,6.4c-0.5,5.2-1.3,10.3-2,15.4c-0.1,0.7-0.1,1.3-0.1,2c0,0.5,0,1.1,0,1.7c-0.9,0.4-1.9,0.7-2.6,1.5
				c0.7,1.1,2,2.3,2,3.6c0,1-1.2,1-1.9,3.1c0.6,0.2,1.2,0.5,1.7,0.7c-0.5,1.7-1.5,3.2-1.8,5c-1,5-0.8,10.1-1.7,15.1
				c-0.5,3.8-0.8,7.6-1,11.4c-0.3,1.2,0,2.4-0.3,3.6v7.1c0.5,2.4,0.7,4.7,1.1,7.1c2.2,1.7,4,3.7,6.5,5.1l4.8,3.1
				c4,2.6,8.4,4.8,12.4,7.5l-3,41.2c21,4,31,6.3,39.9,7.2c1.6,0.2,3.1,0.3,4.6,0.4c1.5-0.1,3.1-0.2,4.6-0.4c9-0.9,18.9-3.2,39.9-7.2
				L206.5,271.2z"/>
			<path d="M162,150c-3.8,1.2-5.5,2.6-6.4,3.6c2.3-0.7,4.5-1.9,6.9-2.4c0.9-0.2,1.7-0.3,2.6-0.3c0.9,0,1.7,0.1,2.6,0.3
				c2.4,0.5,4.6,1.6,6.9,2.4c-0.9-1.1-2.6-2.4-6.4-3.6H162L162,150z"/>
		</g>
	</g>
</g>
</svg>
