<?xml version="1.0" encoding="utf-8"?>
<!-- Generator: Adobe Illustrator 25.2.2, SVG Export Plug-In . SVG Version: 6.00 Build 0)  -->
<svg version="1.1" xmlns="http://www.w3.org/2000/svg" xmlns:xlink="http://www.w3.org/1999/xlink" x="0px" y="0px"
	 viewBox="0 0 39.65 48.99" style="enable-background:new 0 0 39.65 48.99;" xml:space="preserve">
<style type="text/css">
	.st0{display:none;}
	.st1{display:inline;fill:#FFFFFF;stroke:#1D1D1B;stroke-miterlimit:10;}
	.st2{display:inline;fill:none;stroke:#1D1D1B;stroke-miterlimit:10;}
	.st3{fill:#FFFFFF;stroke:#1D1D1B;stroke-miterlimit:10;}
</style>
<g id="Ebene_1" class="st0">
	<polyline class="st1" points="5.01,47.24 5.01,17.2 35.05,17.2 35.05,47.24 5.01,47.24 	"/>
	<line class="st1" x1="5.01" y1="17.2" x2="20.26" y2="1.94"/>
	<line class="st1" x1="35.05" y1="17.2" x2="19.79" y2="1.94"/>
</g>
<g id="Ebene_2" class="st0">
	<rect x="5.01" y="6.45" class="st1" width="30.41" height="40.79"/>
	<path class="st2" d="M9.4,19.03c0.84-0.87,1.89-1.84,3.3-1.83c0.96,0,1.79,0.46,2.67,0.75c0.9,0.3,1.89,0.42,2.86,0.36
		c1.43-0.09,2.81-0.58,4.23-0.47c0.82,0.06,1.59,0.31,2.38,0.47c2.06,0.41,4.32,0.2,6.18-0.59"/>
	<path class="st2" d="M9.45,23.51c0.84-0.87,1.89-1.84,3.3-1.83c0.96,0,1.79,0.46,2.67,0.75c0.9,0.3,1.89,0.42,2.86,0.36
		c1.43-0.09,2.81-0.58,4.23-0.47c0.82,0.06,1.59,0.31,2.38,0.47c2.06,0.41,4.32,0.2,6.18-0.59"/>
	<path class="st2" d="M9.45,27.98c0.84-0.87,1.89-1.84,3.3-1.83c0.96,0,1.79,0.46,2.67,0.75c0.9,0.3,1.89,0.42,2.86,0.36
		c1.43-0.09,2.81-0.58,4.23-0.47c0.82,0.06,1.59,0.31,2.38,0.47c2.06,0.41,4.32,0.2,6.18-0.59"/>
	<path class="st2" d="M9.4,32.46c0.84-0.87,1.89-1.84,3.3-1.83c0.96,0,1.79,0.46,2.67,0.75c0.9,0.3,1.89,0.42,2.86,0.36
		c1.43-0.09,2.81-0.58,4.23-0.47c0.82,0.06,1.59,0.31,2.38,0.47c2.06,0.41,4.32,0.2,6.18-0.59"/>
</g>
<g id="Ebene_3" class="st0">
	<path class="st1" d="M37.77,24.59c0,9.8-7.94,17.74-17.74,17.74c-5.96,0-11.24-2.94-14.45-7.45c-2.07-2.9-3.29-6.45-3.29-10.29
		c0-9.8,7.94-17.74,17.74-17.74S37.77,14.79,37.77,24.59z"/>
	<path class="st1" d="M5.58,34.88c0,0,7.35,5.97,10.15,0.54c2.85-5.53,7.63-8.6,12.74-7.59c0,0-7.09,5.38-2.79,8.75
		c1.96,1.54,7.78,0.55,10.44-4.5"/>
	<circle class="st1" cx="25.4" cy="16.31" r="3.06"/>
</g>
<g id="Ebene_4">
	<polygon class="st3" points="35.42,47.24 20.21,32.03 5.01,47.24 5.01,6.18 35.42,6.18 	"/>
</g>
</svg>
