<?xml version="1.0" encoding="utf-8"?>
<!-- Generator: Adobe Illustrator 25.2.2, SVG Export Plug-In . SVG Version: 6.00 Build 0)  -->
<svg version="1.1" id="Ebene_1" xmlns="http://www.w3.org/2000/svg" xmlns:xlink="http://www.w3.org/1999/xlink" x="0px" y="0px"
	 viewBox="0 0 39.7 49" style="enable-background:new 0 0 39.7 49;" xml:space="preserve">
<style type="text/css">
	.st0{display:none;}
	.st1{display:inline;fill:#FFFFFF;stroke:#1D1D1B;stroke-miterlimit:10;}
	.st2{display:inline;fill:none;stroke:#1D1D1B;stroke-miterlimit:10;}
	.st3{fill:#FFFFFF;stroke:#1D1D1B;stroke-miterlimit:10;}
</style>
<g id="Ebene_2_1_" class="st0">
	<rect x="5" y="6.4" class="st1" width="30.4" height="40.8"/>
	<path class="st2" d="M9.4,19c0.8-0.9,1.9-1.8,3.3-1.8c1,0,1.8,0.5,2.7,0.8c0.9,0.3,1.9,0.4,2.9,0.4c1.4-0.1,2.8-0.6,4.2-0.5
		c0.8,0.1,1.6,0.3,2.4,0.5c2.1,0.4,4.3,0.2,6.2-0.6"/>
	<path class="st2" d="M9.4,23.5c0.8-0.9,1.9-1.8,3.3-1.8c1,0,1.8,0.5,2.7,0.8c0.9,0.3,1.9,0.4,2.9,0.4c1.4-0.1,2.8-0.6,4.2-0.5
		c0.8,0.1,1.6,0.3,2.4,0.5c2.1,0.4,4.3,0.2,6.2-0.6"/>
	<path class="st2" d="M9.4,28c0.8-0.9,1.9-1.8,3.3-1.8c1,0,1.8,0.5,2.7,0.8c0.9,0.3,1.9,0.4,2.9,0.4c1.4-0.1,2.8-0.6,4.2-0.5
		c0.8,0.1,1.6,0.3,2.4,0.5c2.1,0.4,4.3,0.2,6.2-0.6"/>
	<path class="st2" d="M9.4,32.5c0.8-0.9,1.9-1.8,3.3-1.8c1,0,1.8,0.5,2.7,0.8c0.9,0.3,1.9,0.4,2.9,0.4c1.4-0.1,2.8-0.6,4.2-0.5
		c0.8,0.1,1.6,0.3,2.4,0.5c2.1,0.4,4.3,0.2,6.2-0.6"/>
</g>
<g id="Ebene_3" class="st0">
	<path class="st1" d="M37.8,24.6c0,9.8-7.9,17.7-17.7,17.7c-6,0-11.2-2.9-14.4-7.5C3.5,32,2.3,28.4,2.3,24.6
		c0-9.8,7.9-17.7,17.7-17.7S37.8,14.8,37.8,24.6z"/>
	<path class="st1" d="M5.6,34.9c0,0,7.4,6,10.1,0.5c2.9-5.5,7.6-8.6,12.7-7.6c0,0-7.1,5.4-2.8,8.8c2,1.5,7.8,0.5,10.4-4.5"/>
	<circle class="st1" cx="25.4" cy="16.3" r="3.1"/>
</g>
<polygon class="st3" points="34.8,47.1 4.8,47.1 4.8,17.1 19.8,1.8 34.8,17.1 "/>
<line class="st3" x1="4.8" y1="17.1" x2="34.8" y2="17.1"/>
</svg>
